#N canvas 58 25 1166 479 10;
#X declare -path includes;
#X declare -path mslib;
#X obj -990 -360 adc~;
#X obj -978 -337 s~ input-signal;
#X obj -84 -300 pedal 64;
#X obj -84 -276 tgl 15 0 empty empty empty 17 7 0 10 -262144 -1 -1
0 1;
#X obj -123 -325 r~ input-signal;
#X obj -33 -138 listener;
#X obj -123 -184 spigot~;
#X obj -186 50 s~ input-signal-process;
#X text -994 -382 get original signal;
#X obj -764 -347 nbx 3 62 -1e+37 1e+37 0 0 empty curPitch empty 0 0
1 60 -262144 -99865 -99865 0 256;
#N canvas 1455 191 488 424 mainout 0;
#X obj 106 65 crossfade~;
#X obj 174 65 crossfade~;
#X obj 105 149 hsl 60 15 0 127 0 0 empty empty empty -2 -8 0 10 -262144
-1 -1 5900 1;
#X msg 391 67 64;
#X obj 27 12 r~ input-signal-process;
#X obj 176 13 catch~ main-l;
#X obj 271 11 catch~ main-r;
#X obj 100 168 ms_meter_stereo~;
#X obj 102 102 output~;
#X obj 292 89 r wet-dry-mix;
#X connect 0 0 7 0;
#X connect 0 0 8 0;
#X connect 1 0 7 1;
#X connect 1 0 8 1;
#X connect 2 0 1 2;
#X connect 2 0 0 2;
#X connect 3 0 2 0;
#X connect 4 0 0 0;
#X connect 4 0 1 0;
#X connect 5 0 0 1;
#X connect 6 0 1 1;
#X connect 9 0 2 0;
#X coords 0 -1 1 1 70 205 2 100 100;
#X restore -860 -364 pd mainout;
#X text -862 -385 main outs;
#X obj -990 -299 ms_meter~;
#X obj -989 -410 declare -path includes;
#X obj -390 -353 loadbang;
#X msg -390 -326 127;
#X obj -390 -295 s wet-dry-mix;
#X text -766 -369 current pitch;
#X obj -583 -346 nbx 3 62 -1e+37 1e+37 0 0 empty curCue empty 0 0 1
60 -262144 -99865 -99865 0 256;
#X text -585 -368 current cue;
#X obj -147 -224 tgl 15 0 empty empty empty 17 7 0 10 -262144 -1 -1
0 1;
#X obj -227 -194 freeze~ 20;
#X text -244 -353 Signal is frozen while pitch-tracking is selected
;
#X text -244 -367 Foot pedal toggles between pitch-tracking and processing
;
#N canvas 1291 804 1104 558 get-send-cues 0;
#X obj -302 262 s next-cue;
#X floatatom -302 209 5 0 0 0 - - -;
#X msg -398 152 1;
#X msg -362 152 2;
#X msg -323 153 3;
#X msg -291 153 4;
#X msg -255 153 5;
#X msg -215 155 6;
#X msg -184 152 7;
#X msg -145 153 8;
#X floatatom -342 66 5 0 0 0 - curPitch -;
#X obj -302 235 change;
#X floatatom -346 261 5 0 0 0 - - curCue;
#X obj 42 207 until;
#X obj 42 261 ms_counter 10;
#X floatatom 42 286 5 0 0 0 - - -;
#X obj 42 232 bng 15 250 50 0 empty empty empty 17 7 0 10 -262144 -1
-1;
#X msg 42 180 10;
#X obj 32 377 pack f 1;
#X obj 87 377 pack f 0;
#X obj -68 480 s c1;
#X obj -35 480 s c2;
#X obj -2 480 s c3;
#X obj 30 480 s c4;
#X obj 63 479 s c5;
#X obj 95 480 s c6;
#X obj 128 480 s c7;
#X obj 159 480 s c8;
#X obj 189 480 s c9;
#X obj 223 481 s c10;
#X obj 19 442 route 1 2 3 4 5 6 7 8 9;
#X floatatom 42 89 5 0 0 0 - - -;
#X obj 42 62 r next-cue;
#X obj 42 150 bng 15 250 50 0 empty empty empty 17 7 0 10 -262144 -1
-1;
#X obj 42 318 sel;
#X obj 148 406 print OFF;
#X obj -41 400 print ON;
#X obj 42 111 t b f;
#X floatatom 166 289 5 0 0 0 - - -;
#X obj -342 91 route 45 46 47 48 49 50 51 52;
#X connect 1 0 11 0;
#X connect 2 0 1 0;
#X connect 3 0 1 0;
#X connect 4 0 1 0;
#X connect 5 0 1 0;
#X connect 6 0 1 0;
#X connect 7 0 1 0;
#X connect 8 0 1 0;
#X connect 9 0 1 0;
#X connect 10 0 39 0;
#X connect 11 0 0 0;
#X connect 11 0 12 0;
#X connect 13 0 16 0;
#X connect 14 0 15 0;
#X connect 15 0 34 0;
#X connect 16 0 14 0;
#X connect 17 0 13 0;
#X connect 18 0 30 0;
#X connect 18 0 36 0;
#X connect 19 0 30 0;
#X connect 30 0 20 0;
#X connect 30 1 21 0;
#X connect 30 2 22 0;
#X connect 30 3 23 0;
#X connect 30 4 24 0;
#X connect 30 5 25 0;
#X connect 30 6 26 0;
#X connect 30 7 27 0;
#X connect 30 8 28 0;
#X connect 30 9 29 0;
#X connect 31 0 37 0;
#X connect 32 0 31 0;
#X connect 33 0 17 0;
#X connect 34 1 19 0;
#X connect 37 0 33 0;
#X connect 37 1 38 0;
#X connect 38 0 34 1;
#X connect 38 0 18 0;
#X connect 39 0 2 0;
#X connect 39 1 3 0;
#X connect 39 2 4 0;
#X connect 39 3 5 0;
#X connect 39 4 6 0;
#X connect 39 5 7 0;
#X connect 39 6 8 0;
#X connect 39 7 9 0;
#X restore -884 -105 pd get-send-cues;
#N canvas 44 301 1112 454 playing-modes 1;
#X obj 8 181 tgl 15 0 empty empty empty 17 7 0 10 -262144 -1 -1 0 1
;
#X obj -935 133 feedback_delay;
#X obj -962 165 throw~ main-l;
#X obj -875 165 throw~ main-r;
#X obj -137 270 ms_meter_stereo~;
#X obj -162 245 to_main_out freeze1out;
#X obj -175 204 freeze~ 30 freeze1in freeze1out;
#X msg -781 77 6.5 40 24 5 3000 80 1 1 1;
#X obj -586 163 live_grain_mode_w_presets 2;
#X msg -670 108 13 30 362 71 3000 99 1 10 1;
#X obj -760 163 live_grain_mode_w_presets 1;
#X obj -410 163 live_grain_mode_w_presets 3;
#X msg -447 107 7 0 100 100 900 10 2 5 1;
#X msg -468 78 5.5 7.9 490 0 2010 95 2 8 1;
#X obj -589 5 loadbang;
#X connect 0 0 6 2;
#X connect 1 0 2 0;
#X connect 1 1 3 0;
#X connect 5 0 4 0;
#X connect 5 1 4 1;
#X connect 7 0 10 0;
#X connect 9 0 10 1;
#X connect 12 0 8 1;
#X connect 13 0 8 0;
#X connect 14 0 7 0;
#X connect 14 0 9 0;
#X connect 14 0 13 0;
#X connect 14 0 12 0;
#X restore -993 -106 pd playing-modes;
#X text -997 -132 comment;
#X obj -276 -150 ms_meter~;
#X obj -208 -109 *~ 1.6;
#X obj -84 -224 pipe 100;
#X obj -849 -410 declare -path mslib;
#X obj 32 -172 ms_meter~;
#X obj -127 -98 ms_meter~;
#X connect 0 0 1 0;
#X connect 0 0 12 0;
#X connect 2 0 3 0;
#X connect 2 0 20 0;
#X connect 3 0 29 0;
#X connect 4 0 6 0;
#X connect 4 0 21 0;
#X connect 6 0 7 0;
#X connect 6 0 32 0;
#X connect 6 1 5 0;
#X connect 6 1 31 0;
#X connect 14 0 15 0;
#X connect 15 0 16 0;
#X connect 20 0 21 2;
#X connect 21 0 27 0;
#X connect 21 0 28 0;
#X connect 21 1 27 0;
#X connect 21 1 28 0;
#X connect 28 0 7 0;
#X connect 29 0 6 1;
