#N canvas 915 502 1033 849 10;
#X obj -97 136 +~;
#X msg 326 236 exponential \$1 \$2 \$3;
#X msg 512 229 linear \$1 \$2 \$3;
#X msg 657 88 32 50 2175;
#X msg 657 111 8 75 100;
#X msg 657 135 32 100 105;
#X msg 656 158 64 10 15;
#X msg 657 178 8 1 5;
#X msg 657 197 64 4 5;
#X msg 390 205 8 50 175;
#X msg 390 182 64 1000 10;
#X msg 387 154 32 10 5000;
#X msg 218 47 lines 501 752 5003 7504 105 206 307 408;
#X text 216 24 specify delay line lengths manually;
#X floatatom 413 351 5 0 0 0 - - -;
#X floatatom 464 352 5 0 0 0 - - -;
#X text 420 329 inlets: low/high frequency reverb time (60dB time)
;
#X obj -50 67 tgl 15 0 empty empty empty 17 7 0 10 -262144 -1 -1 0
1;
#X text 361 100 specify a linear/exponential delay length range;
#X text 363 118 <type> <nb lines> <min length> <max length>;
#X msg 279 127 100 500 30000;
#X obj 89 121 fiddle~;
#X obj 98 149 bng 15 250 50 0 empty empty empty 17 7 0 10 -262144 -1
-1;
#X obj 269 640 fdn~ 64 40000;
#X obj 370 642 fdn~ 64 40000;
#X obj 301 387 s \$0-fdnin1;
#X obj 450 435 r \$0-fdnin3;
#X obj 373 432 r \$0-fdnin2;
#X obj 195 446 r \$0-fdnin1;
#X obj 94 432 r~ \$0-fdnin1;
#X obj 141 471 spigot~;
#X obj -107 171 s~ \$0-fdnin1;
#X obj 215 184 tgl 15 0 empty empty empty 17 7 0 10 -262144 -1 -1 0
1;
#X floatatom 546 354 5 0 0 0 - - -;
#X floatatom 622 357 5 0 0 0 - - -;
#X obj 539 390 s \$0-fdn2in2;
#X obj 622 390 s \$0-fdn2in3;
#X obj 378 388 s \$0-fdn1in2;
#X obj 460 388 s \$0-fdn1in3;
#X obj 5 256 - 1;
#X obj 5 279 abs;
#X obj 6 355 line;
#X obj 6 385 s \$0-fdn1in2;
#X obj 91 385 s \$0-fdn2in2;
#X obj 4 306 * 100;
#X msg 5 330 \$1 100;
#X obj 91 361 line;
#X obj 91 312 * 100;
#X msg 91 336 \$1 100;
#X obj 459 681 ms_meter~;
#X obj 409 681 ms_meter~;
#X obj 277 436 r \$0-fdn1in2;
#X obj 510 467 r \$0-fdn2in2;
#X msg 513 590 reset;
#X msg 129 602 reset;
#X obj 547 517 sel 0;
#X obj 547 541 del 10;
#X obj 129 554 sel 0;
#X obj 129 578 del 10;
#X obj -144 238 ms_meter~;
#X obj -67 107 - 0.5;
#X obj -107 12 inlet~;
#X obj -57 13 r~ \$1;
#X obj 270 700 outlet~;
#X obj 321 700 outlet~;
#X obj 473 165 loadbang;
#X connect 0 0 31 0;
#X connect 0 0 59 0;
#X connect 1 0 25 0;
#X connect 2 0 25 0;
#X connect 3 0 2 0;
#X connect 4 0 2 0;
#X connect 5 0 2 0;
#X connect 6 0 2 0;
#X connect 7 0 2 0;
#X connect 8 0 2 0;
#X connect 9 0 1 0;
#X connect 10 0 1 0;
#X connect 11 0 1 0;
#X connect 12 0 25 0;
#X connect 14 0 37 0;
#X connect 15 0 38 0;
#X connect 17 0 60 0;
#X connect 20 0 1 0;
#X connect 21 1 22 0;
#X connect 22 0 32 0;
#X connect 23 0 50 0;
#X connect 23 0 63 0;
#X connect 23 1 64 0;
#X connect 24 0 49 0;
#X connect 24 0 63 0;
#X connect 24 1 49 0;
#X connect 24 1 64 0;
#X connect 26 0 24 2;
#X connect 26 0 23 2;
#X connect 27 0 24 1;
#X connect 27 0 23 1;
#X connect 28 0 24 0;
#X connect 28 0 23 0;
#X connect 29 0 30 0;
#X connect 30 0 23 0;
#X connect 30 1 24 0;
#X connect 32 0 30 1;
#X connect 32 0 39 0;
#X connect 32 0 47 0;
#X connect 33 0 35 0;
#X connect 34 0 36 0;
#X connect 39 0 40 0;
#X connect 40 0 44 0;
#X connect 41 0 42 0;
#X connect 44 0 45 0;
#X connect 45 0 41 0;
#X connect 46 0 43 0;
#X connect 47 0 48 0;
#X connect 48 0 46 0;
#X connect 51 0 23 1;
#X connect 51 0 57 0;
#X connect 52 0 24 1;
#X connect 52 0 55 0;
#X connect 53 0 24 0;
#X connect 54 0 23 0;
#X connect 55 0 56 0;
#X connect 56 0 53 0;
#X connect 57 0 58 0;
#X connect 58 0 54 0;
#X connect 60 0 0 1;
#X connect 61 0 0 0;
#X connect 61 0 21 0;
#X connect 62 0 21 0;
#X connect 62 0 0 0;
#X connect 65 0 10 0;
