#N canvas 619 88 821 745 10;
#X obj 246 474 gate;
#X obj 250 429 t b b;
#X floatatom 181 366 0 0 0 0 - - -;
#X obj 181 334 t f b;
#X obj 297 51 inlet;
#X obj 543 615 outlet;
#X obj 457 610 outlet;
#X obj 380 610 outlet;
#X obj 621 616 outlet;
#X obj 164 646 outlet;
#X obj 73 644 outlet;
#X floatatom 299 576 0 0 0 0 - - -;
#X obj 279 548 t b f;
#X obj 232 499 timer;
#X msg 190 201 0;
#X floatatom 181 226 0 0 0 0 - - -;
#X obj 220 366 bng 15 250 50 0 empty empty empty 0 -6 0 8 -262144 -1
-1;
#X text 186 406 Pitch;
#X obj 247 368 bng 15 250 50 0 empty empty empty 0 -6 0 8 -262144 -1
-1;
#X text 253 408 Attack;
#X floatatom 416 254 0 0 0 0 - - -;
#X floatatom 378 285 0 0 0 0 - - -;
#X floatatom 297 285 0 0 0 0 - - -;
#X obj 297 201 unpack 0 0;
#X text 497 285 overall dB amplitude of the signal;
#X obj 299 607 outlet;
#X obj 279 520 max \$1;
#X text 71 664 pitch/rest;
#X text 164 664 attack;
#X text 289 633 duration;
#X text 372 640 cont-pitch;
#X text 460 636 cont-amp;
#X text 545 636 level;
#X text 620 637 partials;
#X obj 191 48 inlet~;
#X obj 181 253 expr int ($f1 + 0.5);
#X text 300 310 continuous MIDI pitch and dB amplitude for the most
likely "note";
#X obj 378 225 rest_bang \$2;
#X text 311 73 arguments: time threshold for duration \, time threshold
for rest \, points in fiddle~ analysis;
#X msg 325 115 print;
#X obj 46 519 wait-until \$1;
#X obj 152 568 wait-until \$1;
#X obj 274 149 fiddle~ \$3 1 20 20;
#X obj 183 289 change;
#X connect 0 0 13 1;
#X connect 1 0 41 0;
#X connect 1 1 0 1;
#X connect 2 0 0 0;
#X connect 2 0 40 0;
#X connect 3 0 2 0;
#X connect 3 1 16 0;
#X connect 4 0 42 0;
#X connect 11 0 25 0;
#X connect 12 0 13 0;
#X connect 12 1 11 0;
#X connect 13 0 26 0;
#X connect 14 0 15 0;
#X connect 15 0 35 0;
#X connect 16 0 13 1;
#X connect 18 0 1 0;
#X connect 20 0 5 0;
#X connect 21 0 6 0;
#X connect 22 0 7 0;
#X connect 23 0 22 0;
#X connect 23 1 21 0;
#X connect 23 1 37 0;
#X connect 26 0 12 0;
#X connect 34 0 42 0;
#X connect 35 0 43 0;
#X connect 37 0 14 0;
#X connect 39 0 42 0;
#X connect 40 0 10 0;
#X connect 41 0 9 0;
#X connect 42 0 15 0;
#X connect 42 1 18 0;
#X connect 42 2 23 0;
#X connect 42 3 20 0;
#X connect 42 4 8 0;
#X connect 43 0 3 0;
