#N canvas 718 217 458 326 10;
#X obj 91 71 moses;
#X floatatom 150 27 5 0 0 0 - noiseFloor -;
#X text 188 29 filter out v below noise floor;
#X obj 149 175 line;
#X floatatom 149 197 5 0 0 0 - - -;
#X obj 38 -7 inlet;
#X text 74 -9 velocity;
#X obj 141 -7 inlet;
#X text 179 -8 noise floor;
#X obj 149 128 t i b;
#X msg 176 151 100;
#X obj 67 185 line;
#X floatatom 67 207 5 0 0 0 - - -;
#X obj 67 138 t i b;
#X msg 94 161 100;
#X msg 67 117 0;
#X obj 116 241 outlet;
#X connect 0 0 15 0;
#X connect 0 1 9 0;
#X connect 1 0 0 1;
#X connect 3 0 4 0;
#X connect 4 0 16 0;
#X connect 5 0 0 0;
#X connect 7 0 0 1;
#X connect 9 0 3 0;
#X connect 9 1 10 0;
#X connect 10 0 3 1;
#X connect 11 0 12 0;
#X connect 12 0 16 0;
#X connect 13 0 11 0;
#X connect 13 1 14 0;
#X connect 14 0 11 1;
#X connect 15 0 13 0;
