#N canvas 223 83 1244 689 10;
#X obj -1283 97 hip~ 5;
#X floatatom -1277 -375 0 0 100 0 - - -;
#X obj -1277 -350 * 441;
#X obj -1282 -33 +~ 1;
#X text -1233 -378 <-- chunk size (100ths of a second);
#X obj -1282 45 *~;
#X obj -1276 -202 line~;
#X obj -1276 -252 * 441;
#X floatatom -1276 -277 0 0 100 0 - - -;
#X obj -1276 -227 pack 0 100;
#X text -1242 -276 <-- read point in 100ths of a second;
#X obj -1282 -4 +~;
#X obj -1226 -5 samphold~;
#X obj -1282 -105 samphold~;
#X obj -1282 -58 *~;
#X obj -1117 -44 r~ phase;
#X obj -884 -203 s~ phase;
#X obj -1194 -105 r~ phase;
#X obj -1260 -81 r~ phase;
#X obj -1206 -30 r~ phase;
#X obj -1225 -331 s chunk-size;
#X floatatom -884 -357 0 0 0 0 - - -;
#X obj -1225 -356 * 0.01;
#X text -1113 -355 chunk size;
#X text -1113 -333 in seconds;
#X obj -873 -302 r chunk-size;
#X obj -873 -277 t b f;
#X obj -884 -253 /;
#X obj -884 -380 loadbang;
#X obj -1117 -20 -~ 0.5;
#X obj -1117 4 *~ 0.5;
#X obj -1117 27 cos~;
#X obj -884 -332 expr pow(2 \, $f1/120);
#X text -695 -332 speed change;
#X obj -884 -229 phasor~;
#X text -1284 -408 TWO OVERLAPPING SAMPLE READ ELEMENTS;
#X obj -1277 -303 s chunk-size-samples;
#X text -1091 -301 ... and in samples;
#X obj -1276 -179 s~ read-pt;
#X obj -1225 -53 r~ read-pt;
#X obj -797 -210 +~ 0.5;
#X obj -796 -184 wrap~;
#X obj -796 -159 s~ phase2;
#X obj -1282 -130 r chunk-size-samples;
#X obj -1028 -22 +~ 1;
#X obj -1028 56 *~;
#X obj -1028 7 +~;
#X obj -973 6 samphold~;
#X obj -1028 -94 samphold~;
#X obj -1028 -47 *~;
#X obj -863 -9 -~ 0.5;
#X obj -863 15 *~ 0.5;
#X obj -863 38 cos~;
#X obj -972 -42 r~ read-pt;
#X obj -1028 -119 r chunk-size-samples;
#X obj -939 -93 r~ phase2;
#X obj -1006 -70 r~ phase2;
#X obj -863 -33 r~ phase2;
#X obj -963 -19 r~ phase2;
#X obj -1283 74 +~;
#X text -849 -357 <-- transposition \, halftones/10;
#X text -846 -254 loop frequency;
#X text -736 -223 second phase signal;
#X text -736 -203 out of phase from;
#X text -737 -182 first one;
#X text -1232 -148 copy 1;
#X text -975 -139 copy 2;
#X obj -1282 21 tabread4~ table22;
#X obj -1028 32 tabread4~ table22;
#N canvas 0 22 450 300 (subpatch) 0;
#X array table22 44103 float 0;
#X coords 0 1.02 44100 -1.02 200 130 1;
#X restore -483 -103 graph;
#X obj -512 -241 hip~ 5;
#X msg -497 -219 bang;
#X text -456 -219 <-- record;
#X obj -512 -192 tabwrite~ table22;
#X obj -402 -279 metro 50;
#X obj -403 -317 tgl 15 0 empty empty empty 17 7 0 10 -262144 -1 -1
1 1;
#X obj -377 -218 spigot;
#X obj -291 -252 tgl 15 0 empty empty empty 17 7 0 10 -262144 -1 -1
0 1;
#X obj -420 -349 loadbang;
#X obj -288 -216 s \$0-freeze;
#X obj -579 76 r \$0-freeze;
#X text -113 -115 comment;
#X obj -291 -373 inlet;
#X text -249 -376 freeze on/off;
#X obj -435 -443 inlet;
#X obj -435 -419 f \$1;
#X obj -389 -443 loadbang;
#X obj -435 -394 s \$0-size;
#X obj -356 -311 r \$0-size;
#X obj -1341 -409 r \$0-size;
#X obj -1340 -286 loadbang;
#X msg -1330 -262 5;
#X obj -547 -377 r~;
#X obj -546 -401 prepend set;
#X obj -546 -448 loadbang;
#X obj -546 -423 symbol \$2;
#X obj -602 -420 inlet~;
#X obj -582 -346 *~ 1;
#X text -331 -444 size of the freeze in ms;
#X obj -677 196 outlet~;
#X obj -625 196 outlet~;
#X obj -289 -330 - 1;
#X obj -290 -293 abs;
#X obj -250 -282 loadbang;
#X obj -657 154 *~;
#X obj -580 100 - 1;
#X obj -580 124 abs;
#X obj -580 148 tgl 15 0 empty empty empty 17 7 0 10 -262144 -1 -1
0 1;
#X connect 0 0 104 0;
#X connect 1 0 2 0;
#X connect 1 0 22 0;
#X connect 2 0 36 0;
#X connect 3 0 11 0;
#X connect 5 0 59 0;
#X connect 6 0 38 0;
#X connect 7 0 9 0;
#X connect 8 0 7 0;
#X connect 9 0 6 0;
#X connect 11 0 67 0;
#X connect 12 0 11 1;
#X connect 13 0 14 0;
#X connect 14 0 3 0;
#X connect 15 0 29 0;
#X connect 17 0 13 1;
#X connect 18 0 14 1;
#X connect 19 0 12 1;
#X connect 21 0 32 0;
#X connect 22 0 20 0;
#X connect 25 0 26 0;
#X connect 26 0 27 0;
#X connect 26 1 27 1;
#X connect 27 0 34 0;
#X connect 28 0 21 0;
#X connect 29 0 30 0;
#X connect 30 0 31 0;
#X connect 31 0 5 1;
#X connect 32 0 27 0;
#X connect 34 0 16 0;
#X connect 34 0 40 0;
#X connect 39 0 12 0;
#X connect 40 0 41 0;
#X connect 41 0 42 0;
#X connect 43 0 13 0;
#X connect 44 0 46 0;
#X connect 45 0 59 1;
#X connect 46 0 68 0;
#X connect 47 0 46 1;
#X connect 48 0 49 0;
#X connect 49 0 44 0;
#X connect 50 0 51 0;
#X connect 51 0 52 0;
#X connect 52 0 45 1;
#X connect 53 0 47 0;
#X connect 54 0 48 0;
#X connect 55 0 48 1;
#X connect 56 0 49 1;
#X connect 57 0 50 0;
#X connect 58 0 47 1;
#X connect 59 0 0 0;
#X connect 67 0 5 0;
#X connect 68 0 45 0;
#X connect 70 0 73 0;
#X connect 71 0 73 0;
#X connect 74 0 76 0;
#X connect 75 0 74 0;
#X connect 76 0 73 0;
#X connect 77 0 76 1;
#X connect 77 0 79 0;
#X connect 78 0 75 0;
#X connect 80 0 105 0;
#X connect 82 0 101 0;
#X connect 84 0 85 0;
#X connect 85 0 87 0;
#X connect 86 0 85 0;
#X connect 88 0 74 1;
#X connect 89 0 1 0;
#X connect 90 0 91 0;
#X connect 91 0 8 0;
#X connect 92 0 97 0;
#X connect 93 0 92 0;
#X connect 94 0 95 0;
#X connect 95 0 93 0;
#X connect 96 0 97 0;
#X connect 97 0 70 0;
#X connect 101 0 102 0;
#X connect 102 0 77 0;
#X connect 103 0 77 0;
#X connect 104 0 99 0;
#X connect 104 0 100 0;
#X connect 105 0 106 0;
#X connect 106 0 104 1;
#X connect 106 0 107 0;
