#N canvas 144 149 437 411 10;
#X obj -145 -263 fiddle~ 1024 1 20 3;
#X obj -91 -223 unpack;
#X floatatom -91 -173 0 0 0 0 - - -;
#X floatatom -77 -196 0 0 0 0 - - -;
#X text -91 -151 raw pitch;
#X floatatom 81 -241 5 0 0 0 - - -;
#X obj -81 -76 steady;
#X floatatom -24 -98 5 0 0 0 - - -;
#X text -20 -85 maximum;
#X text -12 -73 jump;
#X floatatom -139 -43 5 0 0 3 max - -;
#X floatatom -89 -43 5 0 0 3 min - -;
#X floatatom 22 -44 5 0 0 3 through - -;
#X obj -134 -87 bng 15 250 50 0 empty empty set-value 0 -6 0 8 -262144
-1 -1;
#X obj -141 -222 bng 15 250 50 0 empty empty empty 17 7 0 10 -262144
-1 -1;
#X obj -2 -163 mtof;
#X floatatom 5 -130 5 0 0 0 - - -;
#X obj -22 10 massage_pitch;
#X floatatom -20 54 5 0 0 0 - - -;
#X obj 22 53 outlet;
#X obj -145 -287 inlet~;
#X obj 130 21 outlet;
#X text 128 35 velocity;
#X obj 149 -244 inlet;
#X text 94 -268 bang: sets the noise floor;
#X floatatom 187 -44 5 0 0 0 - - noiseFloor;
#X msg 126 -78 set \$1;
#X obj 183 -223 bng 15 250 50 0 empty empty empty 17 7 0 10 -262144
-1 -1;
#X floatatom 91 29 5 0 0 0 - - -;
#X obj 109 -11 filter_noise_floor;
#X obj 81 -218 + 0.5;
#X obj 81 -196 int;
#X floatatom 81 -173 5 0 0 0 - - -;
#X obj 114 -148 mavg 5;
#X obj 121 -126 + 0.5;
#X obj 121 -104 int;
#X connect 0 1 14 0;
#X connect 0 2 1 0;
#X connect 0 3 5 0;
#X connect 1 0 2 0;
#X connect 1 1 3 0;
#X connect 2 0 6 0;
#X connect 2 0 15 0;
#X connect 5 0 30 0;
#X connect 6 0 10 0;
#X connect 6 1 11 0;
#X connect 6 2 12 0;
#X connect 6 2 17 0;
#X connect 7 0 6 1;
#X connect 13 0 6 0;
#X connect 14 0 13 0;
#X connect 15 0 16 0;
#X connect 17 0 18 0;
#X connect 17 0 19 0;
#X connect 20 0 0 0;
#X connect 23 0 27 0;
#X connect 26 0 25 0;
#X connect 27 0 25 0;
#X connect 29 0 21 0;
#X connect 29 0 28 0;
#X connect 30 0 31 0;
#X connect 31 0 32 0;
#X connect 32 0 33 0;
#X connect 33 0 34 0;
#X connect 34 0 35 0;
#X connect 35 0 26 0;
#X connect 35 0 29 0;
