#N canvas 493 320 539 343 10;
#X obj 20 31 inlet~;
#X obj 20 161 outlet~;
#X obj 258 48 ms_meter~;
#X obj 136 55 bng 15 250 50 0 empty empty empty 17 7 0 10 -262144 -1
-1;
#X floatatom 83 158 5 0 0 0 - - curPitch;
#X obj 83 89 get_pitch;
#X connect 0 0 1 0;
#X connect 0 0 2 0;
#X connect 0 0 5 0;
#X connect 3 0 5 1;
#X connect 5 0 4 0;
