#N canvas 384 200 1302 632 10;
#X obj -265 276 tgl 15 0 empty empty empty 17 7 0 10 -262144 -1 -1
1 1;
#X text -60 154 high stuff;
#X msg -119 202 7 0 100 100 900 10 2 5 1;
#X obj -194 227 smooth_preset;
#X obj -194 202 bng 15 250 50 0 empty empty empty 17 7 0 10 -262144
-1 -1;
#X obj -169 201 bng 15 250 50 0 empty empty empty 17 7 0 10 -262144
-1 -1;
#X obj -304 424 ms_meter_stereo~;
#X obj -265 230 r c\$1;
#X obj -336 300 ms_live_grain 7 grain\$1in grain\$1out;
#X obj -332 392 to_main_out grain\$1out;
#X obj -262 62 r \$1-params;
#X floatatom -262 95 5 0 0 0 - - -;
#X obj -381 61 mode_get_params \$1;
#X obj -80 99 loadbang;
#X obj -262 120 route 1 2 3 4 5 6 7 8;
#X obj 47 87 inlet;
#X obj 47 131 prepend set;
#X text 44 67 preset #1;
#X obj 158 125 inlet;
#X obj 158 184 prepend set;
#X text 155 105 preset #2;
#X obj -530 61 r~ input-signal-process;
#X obj -530 91 s~ grain\$1in;
#X obj -53 290 tgl 15 0 empty empty empty 17 7 0 10 -262144 -1 -1 0
1;
#X text -34 288 freeze toggle;
#X msg -77 264 0;
#X msg -45 263 1;
#X obj -446 84 ms_meter~;
#X obj 45 109 t b l;
#X obj 158 146 t b l;
#X msg -140 173 5.5 7.9 490 0 2010 95 2 8 1;
#X connect 0 0 8 1;
#X connect 2 0 3 3;
#X connect 3 0 8 2;
#X connect 4 0 3 0;
#X connect 5 0 3 1;
#X connect 7 0 0 0;
#X connect 9 0 6 0;
#X connect 9 1 6 1;
#X connect 10 0 11 0;
#X connect 11 0 14 0;
#X connect 13 0 30 0;
#X connect 13 0 2 0;
#X connect 13 0 4 0;
#X connect 14 0 4 0;
#X connect 14 1 5 0;
#X connect 14 3 26 0;
#X connect 14 4 25 0;
#X connect 15 0 28 0;
#X connect 16 0 30 0;
#X connect 18 0 29 0;
#X connect 19 0 2 0;
#X connect 21 0 22 0;
#X connect 21 0 27 0;
#X connect 23 0 8 3;
#X connect 25 0 23 0;
#X connect 26 0 23 0;
#X connect 28 0 30 0;
#X connect 28 1 16 0;
#X connect 29 0 2 0;
#X connect 29 1 19 0;
#X connect 30 0 3 2;
