#N canvas 931 974 393 349 10;
#X floatatom -123 5 5 0 0 0 - - -;
#X msg -253 -36 1;
#X msg -217 -36 2;
#X msg -178 -35 3;
#X msg -146 -35 4;
#X msg -110 -35 5;
#X msg -70 -33 6;
#X msg -39 -36 7;
#X msg 0 -35 8;
#X obj -123 31 change;
#X obj -189 -75 route 76 77 78 79 80 81 82 83;
#X floatatom -189 -168 5 0 0 0 - curPitch -;
#X obj -123 58 s \$1-params;
#X obj -132 -143 tgl 15 0 empty empty empty 17 7 0 10 -262144 -1 -1
0 1;
#X obj -132 -168 r c\$1;
#X obj -189 -115 spigot;
#X connect 0 0 9 0;
#X connect 1 0 0 0;
#X connect 2 0 0 0;
#X connect 3 0 0 0;
#X connect 4 0 0 0;
#X connect 5 0 0 0;
#X connect 6 0 0 0;
#X connect 7 0 0 0;
#X connect 8 0 0 0;
#X connect 9 0 12 0;
#X connect 10 0 1 0;
#X connect 10 1 2 0;
#X connect 10 2 3 0;
#X connect 10 3 4 0;
#X connect 10 4 5 0;
#X connect 10 5 6 0;
#X connect 10 6 7 0;
#X connect 10 7 8 0;
#X connect 11 0 15 0;
#X connect 13 0 15 1;
#X connect 14 0 13 0;
#X connect 15 0 10 0;
