#N canvas 1531 299 1415 553 10;
#X obj 21 232 outlet;
#X text 67 231 bang to free voice;
#X obj 23 29 inlet;
#X obj 81 124 print voice;
#X obj 23 151 print called_with;
#X obj 140 80 print ----------------------------;
#X obj 81 100 float \$1;
#X obj 23 57 t anything bang bang;
#X text 15 9 "trigger" inlet;
#X obj 491 40 inlet;
#X text 491 18 "loadbang" inlet;
#X obj 556 338 print created_with;
#X obj 727 210 symbol \$5;
#X obj 796 206 symbol \$6;
#X obj 547 211 float \$2;
#X obj 491 211 float \$1;
#X obj 491 84 trigger bang bang;
#X obj 603 211 f \$3;
#X obj 665 210 f \$4;
#X obj 556 313 pack float float f f symbol symbol;
#X obj -51 377 grainvoice~ 1 \$3;
#X obj 211 352 bng 15 250 50 0 empty empty empty 17 7 0 10 -262144
-1 -1;
#X obj 211 382 s \$3-reset;
#X obj -48 331 r~ \$3-grains-in;
#X obj -76 405 throw~ \$3-grains-out-l;
#X obj 66 404 throw~ \$3-grains-out-r;
#X connect 2 0 7 0;
#X connect 6 0 3 0;
#X connect 7 0 4 0;
#X connect 7 1 6 0;
#X connect 7 2 5 0;
#X connect 9 0 16 0;
#X connect 12 0 19 4;
#X connect 13 0 19 5;
#X connect 14 0 19 1;
#X connect 15 0 19 0;
#X connect 16 0 15 0;
#X connect 16 0 21 0;
#X connect 16 1 12 0;
#X connect 16 1 13 0;
#X connect 16 1 14 0;
#X connect 16 1 17 0;
#X connect 16 1 18 0;
#X connect 17 0 19 2;
#X connect 18 0 19 3;
#X connect 19 0 11 0;
#X connect 20 0 24 0;
#X connect 20 1 25 0;
#X connect 21 0 22 0;
#X connect 23 0 20 0;
