#N canvas 0 22 450 300 10;
#X obj 23 37 inlet;
#X obj 432 37 inlet;
#X obj 23 327 outlet;
#X obj 144 109 print voice;
#X obj 83 138 print called_with;
#X text 76 331 "available" outlet;
#X text 23 15 "trigger" inlet;
#X text 432 15 "loadbang" inlet;
#X obj 483 273 print created_with;
#X obj 544 208 symbol \$3;
#X obj 606 207 symbol \$4;
#X obj 668 207 symbol \$5;
#X obj 730 207 symbol \$6;
#X obj 55 168 print waiting_1000ms;
#X obj 24 205 delay 1000;
#X obj 62 275 print finished;
#X obj 153 275 print voice;
#X obj 483 246 pack float float symbol symbol symbol symbol;
#X obj 488 208 float \$2;
#X obj 432 208 float \$1;
#X obj 24 230 trigger bang bang bang;
#X obj 205 84 print ----------------------------;
#X obj 432 81 trigger bang bang;
#X obj 22 63 trigger bang anything bang bang;
#X obj 144 85 float \$1;
#X obj 153 255 float \$1;
#X connect 0 0 23 0;
#X connect 1 0 22 0;
#X connect 9 0 17 2;
#X connect 10 0 17 3;
#X connect 11 0 17 4;
#X connect 12 0 17 5;
#X connect 14 0 20 0;
#X connect 17 0 8 0;
#X connect 18 0 17 1;
#X connect 19 0 17 0;
#X connect 20 0 2 0;
#X connect 20 1 15 0;
#X connect 20 2 25 0;
#X connect 22 0 19 0;
#X connect 22 1 9 0;
#X connect 22 1 10 0;
#X connect 22 1 11 0;
#X connect 22 1 12 0;
#X connect 22 1 18 0;
#X connect 23 0 13 0;
#X connect 23 0 14 0;
#X connect 23 1 4 0;
#X connect 23 2 24 0;
#X connect 23 3 21 0;
#X connect 24 0 3 0;
#X connect 25 0 16 0;
