#N canvas 1344 440 211 178 10;
#X obj 1 58 sel 0;
#X obj -58 58 sel 127;
#X obj -26 127 tgl 15 0 empty empty empty 17 7 0 10 -262144 -1 -1 0
1;
#X msg -52 83 1;
#X msg -2 84 0;
#X obj -33 22 ctlin \$1;
#X obj -26 151 outlet;
#X connect 0 0 4 0;
#X connect 1 0 3 0;
#X connect 2 0 6 0;
#X connect 3 0 2 0;
#X connect 4 0 2 0;
#X connect 5 0 0 0;
#X connect 5 0 1 0;
