#N canvas 1631 587 583 337 10;
#X obj 204 166 list-inter;
#X msg 52 123 0;
#X floatatom 127 218 5 0 0 0 - - -;
#X obj 131 154 line;
#X msg 89 122 1 1000;
#X obj 72 90 t b b;
#X obj 72 56 bng 15 250 50 0 empty empty empty 17 7 0 10 -262144 -1
-1;
#X obj 30 28 inlet;
#X text 3 9 first to second;
#X obj 128 27 inlet;
#X text 100 8 second to first;
#X obj 164 86 t b b;
#X obj 164 52 bng 15 250 50 0 empty empty empty 17 7 0 10 -262144 -1
-1;
#X msg 146 119 1;
#X msg 181 118 0 1000;
#X obj 247 26 inlet;
#X obj 320 26 inlet;
#X text 237 0 list 1;
#X text 320 -1 list 2;
#X obj 167 295 outlet;
#X connect 0 0 19 0;
#X connect 1 0 3 0;
#X connect 3 0 0 0;
#X connect 3 0 2 0;
#X connect 4 0 3 0;
#X connect 5 0 4 0;
#X connect 5 1 1 0;
#X connect 6 0 5 0;
#X connect 7 0 6 0;
#X connect 9 0 12 0;
#X connect 11 0 14 0;
#X connect 11 1 13 0;
#X connect 12 0 11 0;
#X connect 13 0 3 0;
#X connect 14 0 3 0;
#X connect 15 0 0 1;
#X connect 16 0 0 2;
